# xmcd
#
# Track frame offsets:
# 150
# 11754
# 24326
# 39253
# 53719
# 66922
# 80626
# 93805
# 110419
# 123604
#
# Disc length: 1834 seconds
#
#
# Revision: 0
# Processed by: cddbd v1.5PL3 Copyright (c) Steve Scherf et al.
# Submitted via: FreeRIP 2.53 
#
DISCID=7807280a
DTITLE=Fargo, Donna - The Best Of Donna Fargo
DYEAR=1900
DGENRE=
TTITLE0=The Happiest Girl In The Whole USA
TTITLE1=Funny Face
TTITLE2=That Was Yesterday
TTITLE3=Do I Love You Yes In Every Way
TTITLE4=Somebody Special
TTITLE5=Mockingbird Hill
TTITLE6=Shame On Me
TTITLE7=Another Goddbye
TTITLE8=Daddy
TTITLE9=Ragamuffin Man
EXTD=
EXTT0=
EXTT1=
EXTT2=
EXTT3=
EXTT4=
EXTT5=
EXTT6=
EXTT7=
EXTT8=
EXTT9=
PLAYORDER=
